<?xml version="1.0" standalone="no"?>
<!DOCTYPE svg PUBLIC "-//W3C//DTD SVG 20010904//EN"
 "http://www.w3.org/TR/2001/REC-SVG-20010904/DTD/svg10.dtd">
<svg version="1.0" xmlns="http://www.w3.org/2000/svg"
 width="700.000000pt" height="700.000000pt" viewBox="0 0 700.000000 700.000000"
 preserveAspectRatio="xMidYMid meet">
<metadata>
Created by potrace 1.11, written by Peter Selinger 2001-2013
</metadata>
<g transform="translate(0.000000,700.000000) scale(0.100000,-0.100000)"
fill="#000000" stroke="none">
<path d="M2429 6984 c-397 -71 -703 -351 -783 -715 -5 -21 -14 -29 -50 -38
-49 -12 -86 -50 -86 -87 0 -18 -7 -25 -27 -29 -70 -14 -152 -38 -192 -56 l-43
-19 -30 25 c-64 54 -141 23 -261 -105 -75 -78 -124 -157 -163 -262 -27 -68
-28 -83 -28 -223 0 -118 4 -159 17 -194 9 -24 15 -46 13 -48 -2 -3 -23 -9 -46
-14 -180 -40 -365 -159 -474 -303 -106 -139 -147 -258 -147 -426 0 -150 38
-275 120 -394 28 -40 29 -45 14 -57 -34 -28 -130 -167 -165 -239 -114 -233
-128 -467 -44 -710 42 -121 110 -223 221 -336 105 -107 198 -174 321 -231 l75
-34 -21 -29 c-98 -137 -178 -456 -136 -538 16 -31 61 -62 90 -62 9 0 18 -19
26 -52 7 -29 26 -87 42 -130 l29 -76 -26 -39 c-44 -64 -20 -117 110 -248 129
-129 297 -227 479 -279 48 -14 94 -26 102 -26 8 0 14 -8 14 -17 0 -67 25 -208
50 -286 78 -244 291 -476 545 -593 176 -81 310 -109 520 -109 212 1 355 31
528 114 168 80 350 238 432 374 22 36 43 66 46 67 3 0 11 -12 18 -26 21 -48
120 -171 184 -230 337 -312 882 -394 1309 -196 351 163 574 463 603 813 l7 86
97 27 c124 35 229 81 264 118 64 67 2 183 -90 165 -16 -3 -68 -22 -118 -42
-49 -21 -141 -48 -203 -60 -165 -33 -167 -36 -168 -208 0 -154 -16 -224 -75
-338 -77 -148 -196 -263 -359 -348 -304 -158 -696 -144 -993 36 -89 53 -225
193 -277 282 -24 41 -54 85 -68 97 l-24 23 -6 647 -5 646 189 -5 c146 -4 204
-9 255 -24 179 -53 261 -157 292 -374 5 -33 3 -36 -40 -59 -58 -31 -117 -99
-137 -157 -20 -60 -20 -157 0 -216 9 -26 37 -70 62 -99 125 -138 330 -137 456
3 54 60 76 121 76 208 0 112 -64 217 -163 267 -17 9 -34 18 -36 20 -2 2 -9 43
-17 92 -33 224 -142 386 -318 472 -114 56 -200 72 -419 77 l-197 6 2 316 3
316 250 -3 c289 -3 535 -17 685 -38 429 -61 628 -214 675 -519 6 -38 4 -41
-31 -60 -185 -99 -219 -351 -67 -497 59 -57 124 -82 213 -82 90 0 153 26 215
89 63 62 89 125 89 215 0 119 -57 217 -158 271 -44 23 -44 24 -55 95 -52 350
-268 565 -664 659 -210 50 -478 75 -808 75 -108 0 -230 3 -272 6 l-77 7 0 311
0 312 378 12 c207 6 433 19 502 27 353 42 581 129 734 280 114 112 181 251
207 430 11 72 12 73 50 91 50 22 115 92 142 152 25 57 29 170 8 222 -41 100
-114 166 -215 195 -136 40 -287 -28 -353 -159 -31 -61 -42 -164 -23 -222 20
-66 75 -137 135 -174 54 -35 55 -35 49 -75 -45 -326 -280 -485 -793 -535 -133
-13 -522 -29 -698 -30 l-123 0 0 310 0 310 153 0 c385 0 597 99 712 333 39 79
75 209 75 268 0 36 3 40 48 63 100 51 162 153 162 267 0 36 -8 88 -17 115 -23
67 -110 154 -177 177 -63 22 -159 22 -222 0 -67 -23 -154 -110 -177 -177 -21
-62 -22 -159 -1 -219 19 -55 87 -135 139 -162 l37 -20 -6 -56 c-7 -69 -39
-160 -77 -215 -41 -60 -102 -101 -194 -131 -71 -23 -101 -26 -267 -31 l-188
-5 0 245 0 245 -27 27 c-14 14 -37 29 -50 32 -23 6 -23 8 -23 135 0 127 0 129
24 135 13 3 35 18 49 32 l25 27 7 340 c6 284 9 341 21 348 9 5 36 41 61 79
145 227 368 352 653 365 158 7 278 -18 415 -86 221 -109 361 -286 395 -496 18
-115 -18 -268 -91 -379 -34 -51 -40 -67 -36 -99 6 -46 22 -66 65 -84 70 -29
129 18 198 155 18 37 41 102 51 145 l18 77 62 0 c173 0 354 -78 476 -204 95
-99 142 -214 141 -346 0 -94 -10 -133 -60 -233 -43 -85 -44 -128 -6 -167 24
-23 40 -29 98 -35 189 -18 327 -78 441 -191 165 -162 203 -371 107 -572 -64
-132 -217 -251 -345 -268 -71 -9 -109 -47 -109 -106 0 -49 23 -82 68 -99 50
-19 176 14 287 75 l62 34 39 -49 c111 -140 164 -273 171 -434 6 -127 -13 -221
-67 -330 -100 -202 -292 -356 -536 -431 -107 -32 -134 -56 -134 -117 0 -38 6
-51 48 -98 213 -244 248 -540 97 -824 -40 -75 -41 -84 -20 -130 18 -37 51 -55
99 -55 46 0 68 22 115 110 112 212 136 457 65 681 -27 86 -71 182 -106 231
l-19 28 75 34 c237 108 436 310 529 536 111 267 79 585 -82 830 -27 41 -67 95
-89 120 l-40 45 30 43 c78 113 118 243 119 382 1 169 -48 311 -155 446 -110
140 -291 254 -466 293 -23 5 -44 11 -46 14 -2 2 3 24 12 48 11 28 18 88 21
164 6 147 -7 210 -73 344 -124 252 -438 441 -733 441 -69 0 -71 1 -76 28 -40
184 -109 309 -249 447 -139 138 -269 211 -474 267 -107 30 -369 32 -487 4
-267 -62 -489 -214 -632 -432 -13 -19 -13 -19 -25 0 -85 128 -214 249 -343
322 -202 112 -487 160 -716 118z m2067 -1393 c106 -65 22 -224 -92 -176 -73
30 -79 134 -10 176 17 10 40 19 51 19 11 0 34 -9 51 -19z m900 -675 c38 -38
43 -70 19 -116 -19 -37 -43 -50 -90 -50 -97 0 -133 138 -47 184 45 25 80 20
118 -18z m-15 -2826 c24 -13 49 -61 49 -96 0 -35 -59 -94 -94 -94 -35 0 -83
25 -96 49 -34 65 14 151 85 151 20 0 45 -5 56 -10z m-876 -686 c36 -24 49 -74
31 -117 -14 -35 -58 -67 -91 -67 -33 0 -77 32 -91 67 -18 42 -5 94 29 118 28
20 91 19 122 -1z"/>
<path d="M4373 6305 c-32 -32 -35 -39 -30 -78 10 -73 74 -111 141 -83 71 29
84 121 24 171 -44 38 -91 34 -135 -10z"/>
<path d="M4915 3508 c-59 -32 -75 -114 -31 -161 31 -33 66 -42 110 -27 43 14
66 48 66 97 -1 75 -82 126 -145 91z"/>
<path d="M5615 3511 c-106 -46 -66 -201 52 -201 39 0 93 60 93 104 0 68 -83
124 -145 97z"/>
<path d="M4416 689 c-61 -17 -91 -79 -66 -139 36 -87 174 -74 195 19 6 30 -14
93 -34 106 -25 15 -67 21 -95 14z"/>
</g>
</svg>
