<?xml version="1.0" standalone="no"?>
<!DOCTYPE svg PUBLIC "-//W3C//DTD SVG 20010904//EN"
 "http://www.w3.org/TR/2001/REC-SVG-20010904/DTD/svg10.dtd">
<svg version="1.0" xmlns="http://www.w3.org/2000/svg"
 width="512.000000pt" height="512.000000pt" viewBox="0 0 512.000000 512.000000"
 preserveAspectRatio="xMidYMid meet">
<metadata>
Created by potrace 1.11, written by Peter Selinger 2001-2013
</metadata>
<g transform="translate(0.000000,512.000000) scale(0.100000,-0.100000)"
fill="#000000" stroke="none">
<path d="M1349 4911 l-27 -16 79 -175 c44 -95 81 -175 83 -177 1 -2 17 2 34
10 l30 12 -17 35 c-9 19 -45 99 -80 178 -35 78 -67 144 -70 146 -3 2 -18 -4
-32 -13z"/>
<path d="M3710 4874 c-11 -26 -20 -48 -20 -49 0 -5 -99 -217 -110 -237 -10
-18 1 -31 36 -42 18 -6 29 12 101 171 80 176 81 178 60 190 -36 20 -45 15 -67
-33z"/>
<path d="M2118 4895 c-2 -2 -23 -5 -48 -8 -68 -9 -163 -36 -172 -50 -30 -46
13 -58 118 -32 131 33 245 24 387 -31 42 -16 49 -17 57 -4 20 32 10 47 -47 73
-74 32 -142 47 -226 51 -37 2 -68 2 -69 1z"/>
<path d="M1737 4762 c-32 -20 -41 -40 -26 -58 15 -18 34 -18 64 2 51 34 15 88
-38 56z"/>
<path d="M2095 4683 c-214 -33 -377 -164 -491 -394 -29 -59 -41 -73 -72 -85
-20 -9 -51 -22 -69 -30 -43 -19 -147 -99 -166 -126 -8 -13 -23 -32 -33 -43
-54 -57 -101 -186 -110 -300 -6 -67 -8 -72 -52 -115 -179 -179 -217 -454 -90
-665 17 -27 44 -64 60 -82 l31 -32 -21 -53 c-96 -242 16 -546 246 -665 37 -20
54 -35 58 -53 42 -204 169 -360 367 -450 l63 -28 -1 -364 c-1 -392 3 -426 52
-503 67 -105 160 -151 310 -154 18 -1 23 -10 32 -53 34 -157 172 -275 333
-283 192 -10 350 127 377 326 1 3 33 9 71 12 148 12 254 95 300 232 10 30 14
129 14 412 l1 373 74 35 c187 90 303 232 357 438 1 4 2 14 3 22 0 8 6 15 12
15 6 0 36 17 67 37 225 149 315 431 215 671 -13 31 -12 34 18 67 99 108 150
283 127 431 -19 127 -77 237 -169 324 -33 31 -38 41 -40 90 -3 75 -34 183 -72
254 -59 110 -193 224 -303 256 -37 11 -43 18 -74 84 -47 99 -103 177 -176 246
-63 58 -181 125 -239 136 -16 3 -48 9 -69 14 -37 8 -136 6 -182 -4 -101 -21
-201 -108 -225 -194 -8 -29 -13 -112 -13 -227 l-1 -180 -52 -2 c-34 0 -54 3
-55 10 -1 7 -2 91 -3 187 -1 96 -6 188 -10 205 -11 41 -44 95 -75 123 -27 26
-114 70 -152 78 -38 8 -141 12 -173 7z m516 -683 c1 -3 3 -447 3 -987 l2 -983
-56 0 -56 0 2 978 c0 537 2 982 2 987 2 11 101 16 103 5z m8 -2081 c5 -90 52
-189 125 -265 29 -30 52 -54 52 -55 -1 -1 -476 -5 -476 -4 0 1 24 26 54 57 30
31 67 80 81 108 26 51 58 184 47 195 -3 3 22 5 54 5 l60 0 3 -41z"/>
<path d="M4268 4523 c-1 -5 -69 -61 -150 -127 l-147 -118 17 -24 c9 -13 21
-24 25 -24 5 0 75 54 158 121 l149 121 -21 29 c-22 31 -25 33 -31 22z"/>
<path d="M814 4495 c-16 -25 -16 -28 -1 -36 9 -5 22 -15 29 -22 33 -32 256
-207 264 -207 5 0 16 11 25 23 17 23 16 24 -127 140 -79 65 -151 120 -158 123
-9 3 -22 -5 -32 -21z"/>
<path d="M528 3909 c-5 -54 -13 -50 185 -94 l189 -42 9 24 c17 45 24 41 -106
69 -44 9 -124 27 -177 39 -94 21 -98 21 -100 4z"/>
<path d="M4382 3880 c-89 -20 -166 -38 -170 -39 -7 -2 -6 -35 2 -57 3 -9 20
-8 63 2 32 8 69 16 83 19 101 19 226 48 233 55 4 4 5 19 2 33 -9 33 -4 33
-213 -13z"/>
<path d="M3451 1061 c-10 -6 -12 -19 -7 -44 12 -66 70 -55 64 12 -3 38 -27 51
-57 32z"/>
<path d="M3461 881 c-7 -5 -19 -42 -26 -83 -30 -177 -162 -328 -325 -374 -70
-20 -86 -34 -71 -63 9 -17 18 -20 45 -16 139 23 301 146 365 277 34 70 61 165
61 215 0 35 -26 58 -49 44z"/>
</g>
</svg>
